<svg xmlns="http://www.w3.org/2000/svg" xmlns:xlink="http://www.w3.org/1999/xlink" width="200" zoomAndPan="magnify" viewBox="0 0 150 30.000001" height="40" preserveAspectRatio="xMidYMid meet" version="1.0"><defs><g/></defs><g fill="#000000" fill-opacity="1"><g transform="translate(3.380535, 20.884583)"><g><path d="M 7.109375 -0.609375 C 6.847656 -0.378906 6.53125 -0.203125 6.15625 -0.078125 C 5.789062 0.0351562 5.40625 0.09375 5 0.09375 C 4.070312 0.09375 3.351562 -0.15625 2.84375 -0.65625 C 2.34375 -1.164062 2.09375 -1.878906 2.09375 -2.796875 L 2.09375 -8.796875 L 0.328125 -8.796875 L 0.328125 -9.9375 L 2.09375 -9.9375 L 2.09375 -12.109375 L 3.4375 -12.109375 L 3.4375 -9.9375 L 6.453125 -9.9375 L 6.453125 -8.796875 L 3.4375 -8.796875 L 3.4375 -2.875 C 3.4375 -2.28125 3.582031 -1.828125 3.875 -1.515625 C 4.175781 -1.210938 4.601562 -1.0625 5.15625 -1.0625 C 5.4375 -1.0625 5.703125 -1.101562 5.953125 -1.1875 C 6.210938 -1.28125 6.4375 -1.40625 6.625 -1.5625 Z M 7.109375 -0.609375 "/></g></g></g><g fill="#000000" fill-opacity="1"><g transform="translate(9.609236, 20.884583)"><g><path d="M 3.15625 -7.984375 C 3.46875 -8.648438 3.9375 -9.15625 4.5625 -9.5 C 5.1875 -9.84375 5.957031 -10.015625 6.875 -10.015625 L 6.875 -8.703125 L 6.5625 -8.734375 C 5.507812 -8.734375 4.6875 -8.410156 4.09375 -7.765625 C 3.507812 -7.117188 3.21875 -6.21875 3.21875 -5.0625 L 3.21875 0 L 1.875 0 L 1.875 -9.9375 L 3.15625 -9.9375 Z M 3.15625 -7.984375 "/></g></g></g><g fill="#000000" fill-opacity="1"><g transform="translate(15.743548, 20.884583)"><g><path d="M 5.34375 -10.015625 C 6.644531 -10.015625 7.640625 -9.6875 8.328125 -9.03125 C 9.023438 -8.382812 9.375 -7.425781 9.375 -6.15625 L 9.375 0 L 8.078125 0 L 8.078125 -1.546875 C 7.773438 -1.035156 7.332031 -0.632812 6.75 -0.34375 C 6.164062 -0.0507812 5.472656 0.09375 4.671875 0.09375 C 3.554688 0.09375 2.671875 -0.171875 2.015625 -0.703125 C 1.359375 -1.234375 1.03125 -1.929688 1.03125 -2.796875 C 1.03125 -3.640625 1.335938 -4.316406 1.953125 -4.828125 C 2.566406 -5.347656 3.539062 -5.609375 4.875 -5.609375 L 8.03125 -5.609375 L 8.03125 -6.21875 C 8.03125 -7.070312 7.789062 -7.722656 7.3125 -8.171875 C 6.832031 -8.617188 6.132812 -8.84375 5.21875 -8.84375 C 4.582031 -8.84375 3.972656 -8.738281 3.390625 -8.53125 C 2.816406 -8.320312 2.320312 -8.035156 1.90625 -7.671875 L 1.296875 -8.671875 C 1.804688 -9.097656 2.410156 -9.425781 3.109375 -9.65625 C 3.816406 -9.894531 4.5625 -10.015625 5.34375 -10.015625 Z M 4.875 -0.96875 C 5.625 -0.96875 6.269531 -1.140625 6.8125 -1.484375 C 7.351562 -1.828125 7.757812 -2.328125 8.03125 -2.984375 L 8.03125 -4.609375 L 4.90625 -4.609375 C 3.207031 -4.609375 2.359375 -4.015625 2.359375 -2.828125 C 2.359375 -2.253906 2.578125 -1.800781 3.015625 -1.46875 C 3.460938 -1.132812 4.082031 -0.96875 4.875 -0.96875 Z M 4.875 -0.96875 "/></g></g></g><g fill="#000000" fill-opacity="1"><g transform="translate(25.445789, 20.884583)"><g><path d="M 5.984375 0.09375 C 5.003906 0.09375 4.125 -0.117188 3.34375 -0.546875 C 2.570312 -0.972656 1.96875 -1.570312 1.53125 -2.34375 C 1.09375 -3.125 0.875 -4 0.875 -4.96875 C 0.875 -5.9375 1.09375 -6.804688 1.53125 -7.578125 C 1.96875 -8.347656 2.570312 -8.945312 3.34375 -9.375 C 4.125 -9.800781 5.003906 -10.015625 5.984375 -10.015625 C 6.835938 -10.015625 7.601562 -9.847656 8.28125 -9.515625 C 8.957031 -9.179688 9.488281 -8.691406 9.875 -8.046875 L 8.875 -7.375 C 8.550781 -7.863281 8.132812 -8.226562 7.625 -8.46875 C 7.125 -8.71875 6.578125 -8.84375 5.984375 -8.84375 C 5.265625 -8.84375 4.617188 -8.679688 4.046875 -8.359375 C 3.472656 -8.035156 3.023438 -7.578125 2.703125 -6.984375 C 2.390625 -6.398438 2.234375 -5.726562 2.234375 -4.96875 C 2.234375 -4.195312 2.390625 -3.519531 2.703125 -2.9375 C 3.023438 -2.351562 3.472656 -1.898438 4.046875 -1.578125 C 4.617188 -1.253906 5.265625 -1.09375 5.984375 -1.09375 C 6.578125 -1.09375 7.125 -1.210938 7.625 -1.453125 C 8.132812 -1.691406 8.550781 -2.054688 8.875 -2.546875 L 9.875 -1.875 C 9.488281 -1.226562 8.953125 -0.738281 8.265625 -0.40625 C 7.585938 -0.0703125 6.828125 0.09375 5.984375 0.09375 Z M 5.984375 0.09375 "/></g></g></g><g fill="#000000" fill-opacity="1"><g transform="translate(34.638323, 20.884583)"><g><path d="M 5.546875 -4.984375 L 3.21875 -2.828125 L 3.21875 0 L 1.875 0 L 1.875 -14.015625 L 3.21875 -14.015625 L 3.21875 -4.515625 L 9.140625 -9.9375 L 10.8125 -9.9375 L 6.5625 -5.875 L 11.203125 0 L 9.5625 0 Z M 5.546875 -4.984375 "/></g></g></g><g fill="#000000" fill-opacity="1"><g transform="translate(44.557509, 20.884583)"><g><path d="M 11.3125 -5.046875 C 11.3125 -5.003906 11.296875 -4.738281 11.265625 -4.25 L 3.578125 -4.25 C 3.710938 -3.625 4.035156 -3.125 4.546875 -2.75 C 5.066406 -2.382812 5.710938 -2.203125 6.484375 -2.203125 C 7.003906 -2.203125 7.46875 -2.28125 7.875 -2.4375 C 8.289062 -2.601562 8.675781 -2.851562 9.03125 -3.1875 L 10.59375 -1.5 C 9.632812 -0.394531 8.238281 0.15625 6.40625 0.15625 C 5.257812 0.15625 4.242188 -0.0664062 3.359375 -0.515625 C 2.484375 -0.960938 1.804688 -1.582031 1.328125 -2.375 C 0.847656 -3.175781 0.609375 -4.078125 0.609375 -5.078125 C 0.609375 -6.078125 0.84375 -6.972656 1.3125 -7.765625 C 1.78125 -8.566406 2.425781 -9.191406 3.25 -9.640625 C 4.082031 -10.085938 5.007812 -10.3125 6.03125 -10.3125 C 7.019531 -10.3125 7.914062 -10.097656 8.71875 -9.671875 C 9.53125 -9.242188 10.164062 -8.628906 10.625 -7.828125 C 11.082031 -7.023438 11.3125 -6.097656 11.3125 -5.046875 Z M 6.046875 -8.078125 C 5.378906 -8.078125 4.816406 -7.890625 4.359375 -7.515625 C 3.910156 -7.140625 3.632812 -6.625 3.53125 -5.96875 L 8.53125 -5.96875 C 8.4375 -6.613281 8.160156 -7.125 7.703125 -7.5 C 7.253906 -7.882812 6.703125 -8.078125 6.046875 -8.078125 Z M 6.046875 -8.078125 "/></g></g></g><g fill="#000000" fill-opacity="1"><g transform="translate(55.033751, 20.884583)"><g><path d="M 5.453125 -10.3125 C 7.035156 -10.3125 8.25 -9.9375 9.09375 -9.1875 C 9.9375 -8.4375 10.359375 -7.304688 10.359375 -5.796875 L 10.359375 0 L 7.59375 0 L 7.59375 -1.265625 C 7.039062 -0.316406 6.007812 0.15625 4.5 0.15625 C 3.71875 0.15625 3.039062 0.0234375 2.46875 -0.234375 C 1.894531 -0.503906 1.457031 -0.875 1.15625 -1.34375 C 0.851562 -1.8125 0.703125 -2.335938 0.703125 -2.921875 C 0.703125 -3.867188 1.054688 -4.613281 1.765625 -5.15625 C 2.472656 -5.695312 3.570312 -5.96875 5.0625 -5.96875 L 7.40625 -5.96875 C 7.40625 -6.613281 7.207031 -7.109375 6.8125 -7.453125 C 6.425781 -7.796875 5.84375 -7.96875 5.0625 -7.96875 C 4.519531 -7.96875 3.988281 -7.882812 3.46875 -7.71875 C 2.945312 -7.550781 2.503906 -7.320312 2.140625 -7.03125 L 1.078125 -9.09375 C 1.628906 -9.476562 2.289062 -9.773438 3.0625 -9.984375 C 3.84375 -10.203125 4.640625 -10.3125 5.453125 -10.3125 Z M 5.234375 -1.828125 C 5.734375 -1.828125 6.175781 -1.941406 6.5625 -2.171875 C 6.957031 -2.410156 7.238281 -2.757812 7.40625 -3.21875 L 7.40625 -4.25 L 5.390625 -4.25 C 4.179688 -4.25 3.578125 -3.851562 3.578125 -3.0625 C 3.578125 -2.6875 3.722656 -2.382812 4.015625 -2.15625 C 4.304688 -1.9375 4.710938 -1.828125 5.234375 -1.828125 Z M 5.234375 -1.828125 "/></g></g></g><g fill="#000000" fill-opacity="1"><g transform="translate(65.245696, 20.884583)"><g><path d="M 4.171875 -8.828125 C 4.523438 -9.316406 5 -9.6875 5.59375 -9.9375 C 6.195312 -10.1875 6.890625 -10.3125 7.671875 -10.3125 L 7.671875 -7.59375 C 7.335938 -7.613281 7.117188 -7.625 7.015625 -7.625 C 6.171875 -7.625 5.507812 -7.390625 5.03125 -6.921875 C 4.550781 -6.453125 4.3125 -5.742188 4.3125 -4.796875 L 4.3125 0 L 1.359375 0 L 1.359375 -10.15625 L 4.171875 -10.15625 Z M 4.171875 -8.828125 "/></g></g></g><g fill="#000000" fill-opacity="1"><g transform="translate(71.946344, 20.884583)"><g><path d="M 7.921875 -0.484375 C 7.628906 -0.273438 7.269531 -0.113281 6.84375 0 C 6.425781 0.101562 5.984375 0.15625 5.515625 0.15625 C 4.304688 0.15625 3.367188 -0.148438 2.703125 -0.765625 C 2.046875 -1.390625 1.71875 -2.300781 1.71875 -3.5 L 1.71875 -7.671875 L 0.15625 -7.671875 L 0.15625 -9.9375 L 1.71875 -9.9375 L 1.71875 -12.40625 L 4.671875 -12.40625 L 4.671875 -9.9375 L 7.203125 -9.9375 L 7.203125 -7.671875 L 4.671875 -7.671875 L 4.671875 -3.53125 C 4.671875 -3.101562 4.78125 -2.769531 5 -2.53125 C 5.21875 -2.300781 5.53125 -2.1875 5.9375 -2.1875 C 6.394531 -2.1875 6.789062 -2.3125 7.125 -2.5625 Z M 7.921875 -0.484375 "/></g></g></g><g fill="#000000" fill-opacity="1"><g transform="translate(78.7225, 20.884583)"><g><path d="M 7.53125 -10.3125 C 8.789062 -10.3125 9.804688 -9.929688 10.578125 -9.171875 C 11.359375 -8.421875 11.75 -7.300781 11.75 -5.8125 L 11.75 0 L 8.796875 0 L 8.796875 -5.359375 C 8.796875 -6.171875 8.617188 -6.773438 8.265625 -7.171875 C 7.921875 -7.566406 7.414062 -7.765625 6.75 -7.765625 C 6 -7.765625 5.40625 -7.535156 4.96875 -7.078125 C 4.53125 -6.617188 4.3125 -5.9375 4.3125 -5.03125 L 4.3125 0 L 1.359375 0 L 1.359375 -14.015625 L 4.3125 -14.015625 L 4.3125 -9.109375 C 4.695312 -9.492188 5.164062 -9.789062 5.71875 -10 C 6.28125 -10.207031 6.882812 -10.3125 7.53125 -10.3125 Z M 7.53125 -10.3125 "/></g></g></g><g fill="#000000" fill-opacity="1"><g transform="translate(90.331413, 20.884583)"><g><path d="M 11.671875 -10.15625 L 11.671875 3.671875 L 8.734375 3.671875 L 8.734375 -1.078125 C 7.992188 -0.253906 6.976562 0.15625 5.6875 0.15625 C 4.726562 0.15625 3.859375 -0.0546875 3.078125 -0.484375 C 2.304688 -0.921875 1.703125 -1.535156 1.265625 -2.328125 C 0.828125 -3.117188 0.609375 -4.035156 0.609375 -5.078125 C 0.609375 -6.128906 0.828125 -7.050781 1.265625 -7.84375 C 1.703125 -8.632812 2.304688 -9.242188 3.078125 -9.671875 C 3.859375 -10.097656 4.726562 -10.3125 5.6875 -10.3125 C 7.070312 -10.3125 8.128906 -9.867188 8.859375 -8.984375 L 8.859375 -10.15625 Z M 6.203125 -2.265625 C 6.941406 -2.265625 7.554688 -2.519531 8.046875 -3.03125 C 8.535156 -3.539062 8.78125 -4.222656 8.78125 -5.078125 C 8.78125 -5.929688 8.535156 -6.613281 8.046875 -7.125 C 7.554688 -7.632812 6.941406 -7.890625 6.203125 -7.890625 C 5.441406 -7.890625 4.816406 -7.632812 4.328125 -7.125 C 3.835938 -6.613281 3.59375 -5.929688 3.59375 -5.078125 C 3.59375 -4.222656 3.835938 -3.539062 4.328125 -3.03125 C 4.816406 -2.519531 5.441406 -2.265625 6.203125 -2.265625 Z M 6.203125 -2.265625 "/></g></g></g><g fill="#000000" fill-opacity="1"><g transform="translate(101.921456, 20.884583)"><g><path d="M 11.59375 -10.15625 L 11.59375 0 L 8.796875 0 L 8.796875 -1.203125 C 8.410156 -0.765625 7.945312 -0.425781 7.40625 -0.1875 C 6.863281 0.0390625 6.273438 0.15625 5.640625 0.15625 C 4.304688 0.15625 3.25 -0.226562 2.46875 -1 C 1.6875 -1.769531 1.296875 -2.910156 1.296875 -4.421875 L 1.296875 -10.15625 L 4.25 -10.15625 L 4.25 -4.859375 C 4.25 -3.222656 4.9375 -2.40625 6.3125 -2.40625 C 7.019531 -2.40625 7.585938 -2.632812 8.015625 -3.09375 C 8.441406 -3.550781 8.65625 -4.234375 8.65625 -5.140625 L 8.65625 -10.15625 Z M 11.59375 -10.15625 "/></g></g></g><g fill="#000000" fill-opacity="1"><g transform="translate(113.454859, 20.884583)"><g><path d="M 5.453125 -10.3125 C 7.035156 -10.3125 8.25 -9.9375 9.09375 -9.1875 C 9.9375 -8.4375 10.359375 -7.304688 10.359375 -5.796875 L 10.359375 0 L 7.59375 0 L 7.59375 -1.265625 C 7.039062 -0.316406 6.007812 0.15625 4.5 0.15625 C 3.71875 0.15625 3.039062 0.0234375 2.46875 -0.234375 C 1.894531 -0.503906 1.457031 -0.875 1.15625 -1.34375 C 0.851562 -1.8125 0.703125 -2.335938 0.703125 -2.921875 C 0.703125 -3.867188 1.054688 -4.613281 1.765625 -5.15625 C 2.472656 -5.695312 3.570312 -5.96875 5.0625 -5.96875 L 7.40625 -5.96875 C 7.40625 -6.613281 7.207031 -7.109375 6.8125 -7.453125 C 6.425781 -7.796875 5.84375 -7.96875 5.0625 -7.96875 C 4.519531 -7.96875 3.988281 -7.882812 3.46875 -7.71875 C 2.945312 -7.550781 2.503906 -7.320312 2.140625 -7.03125 L 1.078125 -9.09375 C 1.628906 -9.476562 2.289062 -9.773438 3.0625 -9.984375 C 3.84375 -10.203125 4.640625 -10.3125 5.453125 -10.3125 Z M 5.234375 -1.828125 C 5.734375 -1.828125 6.175781 -1.941406 6.5625 -2.171875 C 6.957031 -2.410156 7.238281 -2.757812 7.40625 -3.21875 L 7.40625 -4.25 L 5.390625 -4.25 C 4.179688 -4.25 3.578125 -3.851562 3.578125 -3.0625 C 3.578125 -2.6875 3.722656 -2.382812 4.015625 -2.15625 C 4.304688 -1.9375 4.710938 -1.828125 5.234375 -1.828125 Z M 5.234375 -1.828125 "/></g></g></g><g fill="#000000" fill-opacity="1"><g transform="translate(123.666804, 20.884583)"><g><path d="M 5.71875 -3.984375 L 4.3125 -2.59375 L 4.3125 0 L 1.359375 0 L 1.359375 -14.015625 L 4.3125 -14.015625 L 4.3125 -6.078125 L 8.609375 -10.15625 L 12.125 -10.15625 L 7.890625 -5.859375 L 12.5 0 L 8.9375 0 Z M 5.71875 -3.984375 "/></g></g></g><g fill="#000000" fill-opacity="1"><g transform="translate(134.690498, 20.884583)"><g><path d="M 11.3125 -5.046875 C 11.3125 -5.003906 11.296875 -4.738281 11.265625 -4.25 L 3.578125 -4.25 C 3.710938 -3.625 4.035156 -3.125 4.546875 -2.75 C 5.066406 -2.382812 5.710938 -2.203125 6.484375 -2.203125 C 7.003906 -2.203125 7.46875 -2.28125 7.875 -2.4375 C 8.289062 -2.601562 8.675781 -2.851562 9.03125 -3.1875 L 10.59375 -1.5 C 9.632812 -0.394531 8.238281 0.15625 6.40625 0.15625 C 5.257812 0.15625 4.242188 -0.0664062 3.359375 -0.515625 C 2.484375 -0.960938 1.804688 -1.582031 1.328125 -2.375 C 0.847656 -3.175781 0.609375 -4.078125 0.609375 -5.078125 C 0.609375 -6.078125 0.84375 -6.972656 1.3125 -7.765625 C 1.78125 -8.566406 2.425781 -9.191406 3.25 -9.640625 C 4.082031 -10.085938 5.007812 -10.3125 6.03125 -10.3125 C 7.019531 -10.3125 7.914062 -10.097656 8.71875 -9.671875 C 9.53125 -9.242188 10.164062 -8.628906 10.625 -7.828125 C 11.082031 -7.023438 11.3125 -6.097656 11.3125 -5.046875 Z M 6.046875 -8.078125 C 5.378906 -8.078125 4.816406 -7.890625 4.359375 -7.515625 C 3.910156 -7.140625 3.632812 -6.625 3.53125 -5.96875 L 8.53125 -5.96875 C 8.4375 -6.613281 8.160156 -7.125 7.703125 -7.5 C 7.253906 -7.882812 6.703125 -8.078125 6.046875 -8.078125 Z M 6.046875 -8.078125 "/></g></g></g></svg>